<?xml version="1.0" standalone="no"?>
<!DOCTYPE svg PUBLIC "-//W3C//DTD SVG 20010904//EN"
 "http://www.w3.org/TR/2001/REC-SVG-20010904/DTD/svg10.dtd">
<svg version="1.0" xmlns="http://www.w3.org/2000/svg"
 width="512.000000pt" height="512.000000pt" viewBox="0 0 512.000000 512.000000"
 preserveAspectRatio="xMidYMid meet">

<g transform="translate(0.000000,512.000000) scale(0.100000,-0.100000)"
fill="#000000" stroke="none">
<path d="M2440 5104 c-90 -24 -160 -65 -231 -134 -68 -67 -97 -112 -131 -210
-17 -47 -21 -90 -25 -287 l-6 -231 -134 -4 c-134 -3 -135 -3 -159 -31 l-24
-28 0 -507 c0 -566 -2 -580 -68 -706 -71 -135 -213 -245 -363 -281 -39 -9
-114 -15 -194 -15 -71 0 -157 -5 -190 -10 -173 -28 -307 -163 -335 -337 -6
-33 -10 -412 -10 -896 0 -889 0 -883 45 -901 35 -13 72 -6 96 20 l24 26 5 888
5 888 30 43 c17 24 50 57 74 74 39 28 50 30 142 33 l99 4 0 -1220 c0 -671 3
-1228 6 -1237 18 -46 -29 -45 1464 -45 1493 0 1446 -1 1464 45 3 9 6 566 6
1237 l0 1220 99 -4 c92 -3 103 -5 142 -33 24 -17 57 -50 74 -74 l30 -43 5
-888 5 -888 24 -26 c24 -26 61 -33 96 -20 45 18 45 12 45 901 0 484 -4 863
-10 896 -28 174 -162 309 -335 337 -33 5 -118 10 -190 10 -80 0 -155 6 -194
15 -150 36 -292 146 -363 281 -66 126 -68 140 -68 706 l0 507 -24 28 c-24 28
-25 28 -159 31 l-134 4 -6 231 c-5 247 -10 275 -67 387 -31 61 -144 169 -210
202 -115 57 -240 72 -350 42z m175 -155 c112 -21 200 -86 251 -186 l29 -58 3
-232 3 -233 -341 0 -341 0 3 233 c3 222 4 234 27 282 58 116 155 182 302 204
3 1 32 -4 64 -10z m-559 -906 c23 -96 142 -97 161 -3 l6 30 337 0 338 0 5 -30
c19 -94 138 -93 161 3 6 27 7 27 86 27 l80 0 0 -468 c0 -436 1 -474 20 -548
67 -266 281 -474 546 -531 l74 -17 0 -1173 0 -1173 -1310 0 -1310 0 0 1173 0
1173 74 17 c265 57 479 265 546 531 19 74 20 112 20 548 l0 468 80 0 c79 0 80
0 86 -27z"/>
<path d="M2079 3664 l-24 -26 0 -332 0 -333 30 -48 c20 -32 45 -56 74 -72 44
-23 47 -23 401 -23 354 0 357 0 401 23 29 16 54 40 74 72 l30 48 0 333 0 332
-24 26 -24 26 -457 0 -457 0 -24 -26z m819 -401 l-3 -268 -335 0 -335 0 -3
268 -2 267 340 0 340 0 -2 -267z"/>
<path d="M1446 469 c-35 -27 -36 -86 -3 -117 22 -21 32 -22 218 -22 191 0 196
0 217 23 32 34 30 89 -4 116 -25 20 -40 21 -214 21 -174 0 -189 -1 -214 -21z"/>
<path d="M2096 465 c-34 -32 -35 -77 -1 -110 l24 -25 769 0 769 0 21 23 c32
34 30 89 -4 116 -26 21 -33 21 -789 21 l-762 0 -27 -25z"/>
</g>
</svg>
